<svg xmlns="http://www.w3.org/2000/svg" width="361" height="101" viewBox="0 0 361 101"><path fill="#FFF" d="M0 70.323C0 77.165 5.65 82.71 12.478 82.71v-9.525c-1.575 0-2.853-1.276-2.853-2.862V41.05H0v29.273M64.787 44.207h9.633v6.097h.158c2.084-4.415 6.336-7.057 11.394-7.057 1.2 0 2.32.242 3.445.557v9.31c-1.604-.406-3.126-.723-4.652-.723-9.067 0-10.345 7.62-10.345 9.703V82.71h-9.633V44.208"/><path fill="#FFF" d="M109.646 43.247c11.63 0 20.937 8.1 20.937 20.21 0 12.115-9.306 20.215-20.937 20.215-11.63 0-20.935-8.1-20.935-20.216 0-12.11 9.306-20.21 20.936-20.21m0 31.757c7.06 0 11.313-5.53 11.313-11.547 0-6.013-4.253-11.55-11.314-11.55-7.056 0-11.31 5.537-11.31 11.55 0 6.018 4.254 11.547 11.31 11.547zM156.174 54.876c-1.843-2.566-4.25-3.93-7.54-3.93-2.567 0-5.613 1.2-5.613 4.093 0 6.897 20.776 1.28 20.776 16.28 0 9.145-8.748 12.352-16.606 12.352-5.935 0-11.07-1.527-15.002-5.935l6.42-6.016c2.486 2.73 5.054 4.735 9.144 4.735 2.81 0 6.418-1.368 6.418-4.412 0-7.943-20.774-1.683-20.774-16.368 0-8.58 7.698-12.428 15.478-12.428 5.136 0 10.588 1.603 13.718 5.854l-6.418 5.776"/><path fill="#FFF" d="M167.326 44.207h9.144v5.78h.163c2.803-4.653 7.858-6.74 13.235-6.74 11.87 0 19.01 8.822 19.01 20.21 0 11.394-7.624 20.215-18.61 20.215-7.222 0-11.072-3.366-13.074-5.854h-.244V101h-9.624V44.207m20.61 7.698c-7.052 0-11.303 5.538-11.303 11.55 0 6.02 4.25 11.548 11.303 11.548 7.068 0 11.316-5.53 11.316-11.547 0-6.013-4.248-11.55-11.316-11.55zM221.637 66.828c.64 5.694 4.967 9.146 10.35 9.146 4.804 0 7.935-2.25 10.346-5.216l6.892 5.216c-4.488 5.535-10.186 7.698-16.28 7.698-11.635 0-20.933-8.1-20.933-20.216 0-12.11 9.298-20.21 20.933-20.21 10.75 0 18.046 7.54 18.046 20.933v2.648h-29.353m19.733-7.22c-.078-5.618-3.772-9.144-9.787-9.144-5.7 0-9.227 3.61-9.946 9.145h19.733zM282.36 55.757c-2.25-2.322-4.734-3.852-7.3-3.852-7.058 0-11.31 5.538-11.31 11.55 0 6.02 4.252 11.548 11.31 11.548 2.97 0 5.693-1.278 7.455-3.6l6.425 6.892c-3.934 3.934-10.507 5.377-13.88 5.377-11.632 0-20.934-8.1-20.934-20.216 0-12.11 9.302-20.21 20.933-20.21 4.897 0 10.268 1.763 13.96 5.855l-6.66 6.657M290.22 52.39v-8.183h7.943V33.055h9.63v11.152h10.587v8.184h-10.588v16.85c0 3.845 1.125 6.253 5.373 6.253 1.683 0 4.007-.323 5.215-1.205v8.103c-2.01.964-5.373 1.282-7.62 1.282-10.186 0-12.597-4.57-12.597-13.63V52.39h-7.943"/><path fill="#FFF" d="M325.334 73.875c2.493 0 4.527 2.03 4.527 4.526s-2.033 4.532-4.526 4.532c-2.494 0-4.527-2.036-4.527-4.53 0-2.496 2.033-4.527 4.527-4.527m0 8.03c1.884 0 3.36-1.542 3.36-3.504s-1.476-3.506-3.36-3.506c-1.883 0-3.36 1.544-3.36 3.507s1.477 3.506 3.36 3.506zm-1.743-5.93h1.528c1.093 0 2.14.262 2.14 1.404 0 .847-.56 1.388-1.07 1.46l1.214 1.885h-1.277l-1.082-1.826h-.275v1.825h-1.177v-4.75zm1.158 1.976h.578c.288 0 .763-.01.763-.51 0-.483-.476-.51-.764-.51h-.578v1.02zM39.76 25.917H16.283v8.736h4.387V82.71h10.106v-23.5h7.222c12.027 0 22.696-2.568 22.696-16.847 0-12.593-9.945-16.446-20.933-16.446m-2.887 24.625h-6.097v-15.89h7.222c5.45 0 12.112.89 12.112 7.87 0 7.706-7.46 8.02-13.237 8.02z"/><path fill="#8EC549" d="M0 25.917h9.596v8.73H0zM337.024 27.69h-.077c-2.592 0-4.807-2.1-4.807-4.695V12.62h3.8v10.375c0 .603.49 1.084 1.084 1.084v3.61m7.725 1.497c-2.615 0-4.738-2.126-4.738-4.738V10.222h-1.656v-3.27h8.79c4.114 0 7.838 1.44 7.838 6.156 0 5.344-3.996 6.306-8.496 6.306h-2.662v5.033c0 .507.416.92.923.92h10.945c.51 0 .923-.413.923-.92V5.24c0-.508-.414-.92-.923-.92h-25.432c-.508 0-.923.412-.923.92v24.668c0 .508.415.92.923.92h9.75v3.818h-9.75c-2.61 0-4.738-2.125-4.738-4.738V5.238c0-2.61 2.127-4.736 4.738-4.736h25.432c2.613 0 4.738 2.125 4.738 4.737v19.21c0 2.61-2.125 4.737-4.738 4.737H344.75zm1.738-18.964h-2.662v5.947h2.237c2.166 0 4.958-.117 4.958-3.002 0-2.612-2.49-2.945-4.532-2.945zm-14.35-.002h3.792V6.953h-3.792v3.27z"/></svg>
